<svg xmlns="http://www.w3.org/2000/svg" aria-hidden="true" style="width:0;height:0;position:absolute;overflow:hidden"><defs><symbol id="icon-film" viewBox="0 0 32 32"><path fill="none" stroke-linejoin="round" stroke-linecap="round" stroke-width="2.667" d="M26.427 2.667H5.574a2.907 2.907 0 0 0-2.907 2.907v20.853a2.907 2.907 0 0 0 2.907 2.907h20.853a2.907 2.907 0 0 0 2.907-2.907V5.574a2.907 2.907 0 0 0-2.907-2.907zM9.333 2.667v26.667M22.667 2.667v26.667M2.667 16h26.667M2.667 9.333h6.667M2.667 22.667h6.667M22.667 22.667h6.667M22.667 9.333h6.667"/></symbol><symbol id="icon-heart-goit" viewBox="0 0 34 32"><path d="m17.231 31.705-2.412-2.412C5.859 21.367.001 16.025.001 9.478.001 4.136 4.136.001 9.478.001c2.929 0 5.858 1.378 7.754 3.618 1.895-2.24 4.825-3.618 7.754-3.618 5.342 0 9.477 4.135 9.477 9.477 0 6.548-5.858 11.889-14.818 19.815l-2.412 2.412z"/></symbol></defs><symbol id="icon-cross" viewBox="0 0 32 32"><path d="M23.733 10.304 22.229 8.8l-5.963 5.963L10.303 8.8l-1.504 1.504 5.963 5.963-5.963 5.963 1.504 1.504 5.963-5.963 5.963 5.963 1.504-1.504-5.963-5.963 5.963-5.963z"/></symbol><symbol id="icon-mail" viewBox="0 0 32 32"><path d="m31.523 16.595-1.557-1.557a1.634 1.634 0 0 0-2.307 0l-8.41 8.41-1.159 4.251-.284.284a.545.545 0 0 0-.003.768l-.003.011.01-.003a.545.545 0 0 0 .768-.003l.284-.284 4.25-1.159 8.41-8.41a1.633 1.633 0 0 0 0-2.307zm-11.012 7.137 5.597-5.597 2.319 2.319-5.597 5.597-2.319-2.319zm-.493 1.052 1.76 1.76-2.42.66.66-2.419zm10.732-6.655-1.551 1.551-2.319-2.318 1.551-1.551a.54.54 0 0 1 .762-.001l1.557 1.557a.54.54 0 0 1-.001.761z"/><path d="M15.847 24.396H2.12c2.485-1.969 8.088-6.438 10.966-8.963l.777.686c.547.489 1.266.733 1.985.733.717 0 1.436-.244 1.981-.731L30.601 4.843v8.624a.546.546 0 0 0 1.092 0V3.631l-.003-.012a.517.517 0 0 0-.033-.181l-.006-.01c-.006-.015-.016-.026-.022-.04a.526.526 0 0 0-.082-.121c-.014-.015-.029-.028-.045-.042a.516.516 0 0 0-.111-.075c-.018-.009-.034-.019-.053-.026a.53.53 0 0 0-.191-.039H.546a.54.54 0 0 0-.356.14c-.016.014-.031.027-.045.042a.537.537 0 0 0-.082.121c-.007.014-.016.026-.022.04l-.006.01a.54.54 0 0 0-.032.181C.002 3.623 0 3.627 0 3.632v21.311l.001.005a.552.552 0 0 0 .029.174c.002.007.007.011.01.018.008.019.019.036.028.054a.558.558 0 0 0 .122.156.507.507 0 0 0 .109.073c.019.01.036.02.055.028a.566.566 0 0 0 .192.038h15.3a.545.545 0 1 0 0-1.092zm-14.754-.581V4.843l11.168 9.861c-3.036 2.652-8.935 7.344-11.168 9.111zm28.61-19.637-12.6 11.126c-.692.619-1.82.619-2.515-.002l-1.081-.955-.007-.011c-.012-.014-.029-.019-.042-.031L1.991 4.179h27.712z"/></symbol><symbol id="icon-github" viewBox="0 0 32 32"><path d="M16 5.343c-6.196 0-11.219 5.023-11.219 11.219 0 4.957 3.214 9.162 7.673 10.645.561.103.766-.244.766-.54 0-.267-.01-1.152-.016-2.088-3.12.678-3.779-1.323-3.779-1.323-.511-1.296-1.246-1.641-1.246-1.641-1.02-.696.077-.682.077-.682 1.126.078 1.72 1.156 1.72 1.156 1.001 1.715 2.627 1.219 3.265.931.102-.723.392-1.219.712-1.498-2.49-.283-5.11-1.246-5.11-5.545 0-1.226.438-2.225 1.154-3.011-.114-.285-.501-1.426.111-2.97 0 0 .941-.301 3.085 1.15.894-.25 1.854-.373 2.807-.377.953.004 1.913.129 2.809.379 2.14-1.453 3.083-1.15 3.083-1.15.613 1.545.227 2.685.112 2.969.719.785 1.153 1.785 1.153 3.011 0 4.31-2.624 5.259-5.123 5.537.404.348.761 1.03.761 2.076 0 1.5-.015 2.709-.015 3.079 0 .299.204.648.772.538 4.455-1.486 7.666-5.69 7.666-10.645 0-6.195-5.023-11.219-11.219-11.219z"/></symbol><symbol id="symbol-search" viewBox="0 0 12 12" fill="none" xmlns="http://www.w3.org/2000/svg"><path d="M5.5 9.5a4 4 0 1 0 0-8 4 4 0 0 0 0 8ZM10.5 10.5 8.325 8.325" stroke="#fff" stroke-linecap="round" stroke-linejoin="round"/></symbol><symbol id="symbol-heart" viewBox="0 0 14 13" fill="none" xmlns="http://www.w3.org/2000/svg"><path d="m7 13.188-.98-.97C2.38 9.03 0 6.88 0 4.248 0 2.097 1.68.435 3.85.435A4.23 4.23 0 0 1 7 1.89 4.224 4.224 0 0 1 10.15.436C12.32.436 14 2.099 14 4.247c0 2.634-2.38 4.783-6.02 7.97l-.98.971Z" fill="#FF6B08"/></symbol><symbol id="logo-film" viewBox="0 0 24 24" fill="none" xmlns="http://www.w3.org/2000/svg"><path d="M19.82 2H4.18A2.18 2.18 0 0 0 2 4.18v15.64A2.18 2.18 0 0 0 4.18 22h15.64A2.18 2.18 0 0 0 22 19.82V4.18A2.18 2.18 0 0 0 19.82 2ZM7 2v20M17 2v20M2 12h20M2 7h5M2 17h5M17 17h5M17 7h5" stroke-width="2" stroke-linecap="round" stroke-linejoin="round"/></symbol><symbol id="icon-empty-collection" viewBox="0 0 43 32"><path d="M17.657 4.525c-.111.07-.354.281-.545.457-.334.316-.384.328-1.142.258-.738-.07-.809-.047-1.051.211-.505.551-.95 1.887-.95 2.894 0 .492 0 .492-.637.844-.747.41-1.122.809-1.021 1.101s.475.422 1.435.504l.839.07-.061 1.664-1.061.07v.469c0 .48-.091.574-.303.281-.071-.094-.172-.175-.222-.175-.101 0-4.093 1.723-4.295 1.863-.091.047.141.598.768 1.816l.889 1.746-.343.363c-.707.75-.475 1.921.455 2.297.384.152.475.152.879-.011l.445-.188.404.703c.394.691.394.703.253 1.172-.101.328-.111.504-.04.551.121.094 1.496.305 2.981.469.556.058 1.859.117 2.91.117h1.89v.469c0 .281-.051.492-.121.516-.657.199-.738.258-.738.539s.03.293.768.328c1 .047 1.101-.058 1.101-1.101v-.75h.384c.213 0 .485-.082.606-.188.213-.175.253-.175.415 0 .101.105.354.188.596.188h.424v.796c0 .469.051.856.121.937.172.199 1.536.188 1.688-.023.162-.235.03-.527-.283-.61-.495-.129-.515-.152-.515-.632v-.469h1.9c2.273-.011 5.517-.328 5.871-.574.081-.058.081-.211-.02-.551-.141-.446-.132-.48.202-1.101.475-.867.455-.843.869-.645.465.222.717.222 1.142-.011s.647-.691.647-1.347c0-.422-.061-.563-.384-.914l-.384-.422.404-.762c.909-1.711 1.364-2.625 1.334-2.66-.071-.082-4.426-1.91-4.547-1.91-.081 0-.192.082-.262.175-.213.293-.303.199-.303-.293 0-.293-.051-.48-.121-.48-.071-.011-.293-.023-.485-.035l-.354-.011-.03-1.347c-.02-1.031-.061-1.383-.192-1.547-.151-.199-.465-.211-4.668-.211h-4.507l.637-.399c.849-.539.95-.645.909-.996-.04-.375-.485-.586-1.303-.586l-.566-.011-.313-.738c-.343-.797-1.273-2.004-1.688-2.192-.333-.153-.454-.141-.707.023zm.839.375c.485.352 1.182 1.324 1.394 1.934.091.269.151.504.132.527-.02.011-.637.117-1.364.222-1.071.164-3.001.645-4.255 1.09-.222.07-.232.035-.232-.492 0-.598.172-1.277.505-2.027.303-.703.415-.762 1.303-.679l.798.058.526-.457c.293-.246.586-.457.667-.457s.312.129.525.281zm2.839 2.766c.819.129.93.258.617.645-.213.258-1.101.82-1.162.738-.01-.023-.071-.141-.132-.281-.162-.363-1.03-.563-2.052-.469-1.95.164-2.769.199-2.617.094.283-.211 2.567-.645 3.941-.762.253-.023.526-.047.606-.058.082-.012.446.035.799.094zm-5.659 1.089c-.061.164-.213.328-.334.363-.415.141-.788.61-.819 1.02l-.02.399-.617.035c-.707.035-1.435-.152-1.435-.375 0-.188.434-.632.788-.797.626-.281 2.496-1.008 2.526-.984.011.023-.019.175-.09.34zm4.861.082c.061.094.091.305.081.469l-.03.293 4.568.035c4.446.023 4.578.035 4.679.258.111.235.061.235-7.528.235-4.193 0-7.629-.023-7.629-.047 0-.305.162-.422.617-.422h.495v-.457c0-.258.051-.48.132-.516.061-.023 1.111-.047 2.324-.035 1.838.011 2.211.035 2.292.188zm-4.851.469c0 .058-.091.117-.213.117-.111 0-.172-.058-.141-.117.03-.07.132-.117.213-.117s.141.047.141.117zm14.168 1.348c.03.164.02.316-.02.352-.04.023-3.456.035-7.589.023l-7.518-.023-.03-.328-.03-.316h15.147l.041.293zm0 5.789c0 4.196-.03 5.227-.141 5.297-.071.058-3.385.094-7.367.105-6.336 0-7.256-.023-7.448-.188l-.222-.175V11.181l15.178.058v5.203zM14.535 13.9l.02 1.125-.667.691c-.747.773-.828.832-.828.574 0-.105-.04-.188-.101-.188-.141 0-.132.117.132 1.02.243.832.697 1.735.809 1.605.03-.047-.01-.199-.101-.352-.141-.258-.132-.316.162-.856.626-1.125.626-1.137.617 1.558-.01 2.145.01 2.461.162 2.66s.364.222 2.748.246l2.587.035.02.856c.02.598-.01.879-.101.914-.243.105-2.243.117-3.749.023-1.445-.082-3.658-.375-3.749-.48-.02-.023.02-.235.101-.457.151-.399.141-.422-.293-1.184-.343-.574-.445-.867-.434-1.184.01-.258.061-.422.141-.422.071 0 .213-.129.313-.281.213-.305.536-.246.717.117.061.117.121.152.162.07.03-.07-.051-.222-.192-.34a9.05 9.05 0 0 1-.576-.504l-.313-.281.343-.328c.384-.375.213-.446-.222-.094-.232.199-.667.258-.859.129-.01-.011.02-.222.071-.492.061-.293.061-.539-.01-.668-.081-.164-.091-.129-.101.175 0 .691-.162.973-.536.973-.303 0-.384-.07-.667-.598-.172-.328-.313-.621-.313-.656 0-.082-.738-1.488-.828-1.558-.04-.035-.091-.199-.101-.352-.03-.246.051-.316.728-.61 1.394-.621 3.223-1.383 3.284-1.383.04 0 .182.105.323.235.374.34.424.293.394-.293-.01-.293 0-.563.03-.586.03-.035.232-.058.464-.035l.404.035.01 1.14zm16.289-.586c.02.399.071.563.182.563.071 0 .141-.035.141-.094.01-.188.515-.516.637-.41.071.058.323.199.576.305 2.607 1.067 3.395 1.418 3.466 1.488.101.105-.192.762-.879 1.992-.273.48-.536.996-.596 1.137-.081.211-.182.269-.485.269-.343 0-.394-.035-.455-.328-.172-.902-.243-1.02-.202-.34l.051.679-.424.211c-.313.152-.505.188-.728.117-.394-.129-.687-.129-.617 0 .03.047.243.129.465.175.354.07.404.105.404.399-.01.246-.101.387-.455.632-.262.175-.455.41-.455.527 0 .164.03.164.202-.058.293-.363.788-.632 1-.551.121.035.213.211.243.446.03.305-.04.516-.404 1.125-.455.738-.495.996-.293 1.547.091.235-.03.258-1.89.516-1 .141-4.497.258-5.538.188-.141-.011-.162-.164-.151-.926l.01-.902 2.587-.035c1.981-.023 2.617-.058 2.708-.175.061-.105.111-1.02.111-2.519.02-2.683.04-2.766.647-1.746.415.703.424.75.192 1.043-.091.117-.132.246-.101.293.101.105.323-.258.617-.961.262-.656.505-1.688.415-1.793-.03-.035-.081.047-.121.188-.03.141-.081.258-.121.258s-.394-.352-.798-.785l-.728-.773v-1.08c0-.586.03-1.114.071-1.16s.213-.07.384-.047c.281.036.301.07.331.586zm-16.249 2.589c0 .399-.061.574-.262.797a3.742 3.742 0 0 0-.455.656c-.121.211-.243.387-.283.387-.111 0-.313-.551-.313-.843 0-.246 1.021-1.5 1.223-1.5.051.001.091.224.091.505zm16.259.223c.334.41.617.809.617.89s-.071.34-.151.574l-.162.433-.343-.61c-.192-.328-.445-.656-.556-.726-.162-.094-.202-.246-.202-.703 0-.328.04-.586.091-.586s.363.328.707.727zm-18.887 2.836c.192.094.253.222.253.48 0 .293-.04.352-.283.387-.253.035-.273.07-.222.41.091.574-.222.902-.869.902-.434 0-.556-.058-.809-.34-.222-.269-.293-.457-.293-.809 0-.539.364-1.148.738-1.23.324-.07 1.193.047 1.486.199zm22.475-.117c.617.305.839.996.526 1.699-.263.574-1.172.809-1.667.41-.202-.164-.222-.258-.172-.645.061-.433.051-.446-.263-.48-.243-.023-.343-.094-.364-.281-.04-.34.293-.632.859-.75.707-.129.717-.129 1.081.047zm-13.501 4.957-.03 1.851h-.728c-.809 0-.99-.175-.343-.328l.415-.094v-1.558c0-.856.03-1.594.071-1.629.03-.047.192-.082.354-.082h.293l-.031 1.84zm2.647-.914c0 .738-.03.937-.162.996-.213.094-.657-.035-.869-.246-.151-.152-.202-.152-.455.047a1.048 1.048 0 0 1-.586.222l-.303-.011-.03-.973-.03-.961h2.435v.925zm.89.738.03 1.617.273.07c.455.117.526.152.526.281 0 .07-.303.117-.758.117h-.758V21.95l.334.035.323.035.03 1.605z"/><path d="M24.599 15.657c.02.152.101.269.182.269s.162-.117.182-.269c.03-.199-.02-.258-.182-.258s-.212.059-.182.258zm-5.073.141c.051.058.202.094.354.094s.303-.035.354-.094c.051-.058-.101-.105-.354-.105s-.404.047-.354.105zm1.031 1.735c-.445.516.566 1.488 1.435 1.359.647-.082.596-.797-.061-.926a1.46 1.46 0 0 1-.637-.316c-.313-.294-.556-.328-.738-.117zm.536.163c.202.175.202.175.01.352-.253.211-.354.211-.424-.011-.071-.199.02-.527.132-.527.04 0 .172.094.283.187zm.555.715c0 .258-.03.281-.273.211-.384-.105-.394-.141-.192-.399.233-.293.465-.187.465.188zm.556-.152c.162.141.172.188.061.352-.071.105-.213.188-.303.188-.141 0-.172-.082-.132-.352.051-.399.101-.422.374-.188zM32.572 7.642c-.071.281-.101.574-.081.645.02.082.101-.082.162-.363.071-.281.101-.574.081-.645-.02-.082-.101.082-.162.363zm.818.726c-.182.258-.303.469-.253.457.111-.011.778-.926.677-.926-.051 0-.242.211-.424.469zm.556.903c-.273.094-.475.199-.445.222.071.082.98-.222.98-.328 0-.047-.01-.094-.02-.082-.02.012-.253.094-.515.188z"/></symbol></svg>