<svg xmlns="http://www.w3.org/2000/svg" aria-hidden="true" style="position:absolute;width:0;height:0;overflow:hidden"><defs>
<symbol id="icon-film" viewBox="0 0 32 32">
<path fill="none" stroke-linejoin="round" stroke-linecap="round" stroke-miterlimit="4" stroke-width="2.6667" d="M26.427 2.667h-20.853c-1.605 0-2.907 1.301-2.907 2.907v20.853c0 1.605 1.301 2.907 2.907 2.907h20.853c1.605 0 2.907-1.301 2.907-2.907v-20.853c0-1.605-1.301-2.907-2.907-2.907z"></path>
<path fill="none" stroke-linejoin="round" stroke-linecap="round" stroke-miterlimit="4" stroke-width="2.6667" d="M9.333 2.667v26.667"></path>
<path fill="none" stroke-linejoin="round" stroke-linecap="round" stroke-miterlimit="4" stroke-width="2.6667" d="M22.667 2.667v26.667"></path>
<path fill="none" stroke-linejoin="round" stroke-linecap="round" stroke-miterlimit="4" stroke-width="2.6667" d="M2.667 16h26.667"></path>
<path fill="none" stroke-linejoin="round" stroke-linecap="round" stroke-miterlimit="4" stroke-width="2.6667" d="M2.667 9.333h6.667"></path>
<path fill="none" stroke-linejoin="round" stroke-linecap="round" stroke-miterlimit="4" stroke-width="2.6667" d="M2.667 22.667h6.667"></path>
<path fill="none" stroke-linejoin="round" stroke-linecap="round" stroke-miterlimit="4" stroke-width="2.6667" d="M22.667 22.667h6.667"></path>
<path fill="none" stroke-linejoin="round" stroke-linecap="round" stroke-miterlimit="4" stroke-width="2.6667" d="M22.667 9.333h6.667"></path>
</symbol>
<symbol id="icon-heart-goit" viewBox="0 0 34 32"><path d="m17.231 31.705-2.412-2.412C5.859 21.367.001 16.025.001 9.478.001 4.136 4.136.001 9.478.001c2.929 0 5.858 1.378 7.754 3.618 1.895-2.24 4.825-3.618 7.754-3.618 5.342 0 9.477 4.135 9.477 9.477 0 6.548-5.858 11.889-14.818 19.815l-2.412 2.412z"/></symbol></defs>
<symbol id="icon-cross" viewBox="0 0 32 32">
<path d="M23.733 10.304l-1.504-1.504-5.963 5.963-5.963-5.963-1.504 1.504 5.963 5.963-5.963 5.963 1.504 1.504 5.963-5.963 5.963 5.963 1.504-1.504-5.963-5.963 5.963-5.963z"></path>
</symbol>
<symbol id="icon-mail" viewBox="0 0 32 32">
<path d="M31.523 16.595l-1.557-1.557c-0.636-0.636-1.67-0.635-2.307 0l-8.41 8.41-1.159 4.251-0.284 0.284c-0.212 0.212-0.213 0.554-0.003 0.768l-0.003 0.011 0.010-0.003c0.106 0.104 0.244 0.157 0.382 0.157 0.14 0 0.28-0.054 0.386-0.16l0.284-0.284 4.25-1.159 8.41-8.41c0.636-0.636 0.636-1.671 0-2.307zM20.511 23.732l5.597-5.597 2.319 2.319-5.597 5.597-2.319-2.319zM20.018 24.784l1.76 1.76-2.42 0.66 0.66-2.419zM30.75 18.129l-1.551 1.551-2.319-2.318 1.551-1.551c0.21-0.21 0.552-0.21 0.762-0.001l1.557 1.557c0.209 0.209 0.209 0.551-0.001 0.761z"></path>
<path d="M15.847 24.396h-13.727c2.485-1.969 8.088-6.438 10.966-8.963l0.777 0.686c0.547 0.489 1.266 0.733 1.985 0.733 0.717 0 1.436-0.244 1.981-0.731l12.772-11.278v8.624c0 0.302 0.245 0.546 0.546 0.546s0.546-0.244 0.546-0.546v-9.836c0-0.004-0.002-0.008-0.003-0.012-0.001-0.061-0.010-0.122-0.033-0.181-0.002-0.004-0.004-0.007-0.006-0.010-0.006-0.015-0.016-0.026-0.022-0.040-0.022-0.044-0.049-0.085-0.082-0.121-0.014-0.015-0.029-0.028-0.045-0.042-0.034-0.030-0.071-0.055-0.111-0.075-0.018-0.009-0.034-0.019-0.053-0.026-0.060-0.023-0.123-0.039-0.191-0.039h-30.601c-0.068 0-0.131 0.016-0.192 0.039-0.019 0.007-0.036 0.016-0.053 0.026-0.040 0.021-0.078 0.045-0.111 0.075-0.016 0.014-0.031 0.027-0.045 0.042-0.033 0.036-0.059 0.076-0.082 0.121-0.007 0.014-0.016 0.026-0.022 0.040-0.002 0.004-0.004 0.007-0.006 0.010-0.022 0.059-0.031 0.12-0.032 0.181-0.001 0.004-0.003 0.008-0.003 0.013v21.311c0 0.002 0.001 0.003 0.001 0.005 0.001 0.058 0.009 0.117 0.029 0.174 0.002 0.007 0.007 0.011 0.010 0.018 0.008 0.019 0.019 0.036 0.028 0.054 0.021 0.040 0.045 0.077 0.074 0.11 0.015 0.017 0.031 0.032 0.048 0.046 0.033 0.029 0.069 0.053 0.109 0.073 0.019 0.010 0.036 0.020 0.055 0.028 0.061 0.022 0.125 0.038 0.192 0.038h15.3c0.302 0 0.546-0.244 0.546-0.546s-0.245-0.546-0.546-0.546zM1.093 23.815v-18.972l11.168 9.861c-3.036 2.652-8.935 7.344-11.168 9.111zM29.703 4.178l-12.6 11.126c-0.692 0.619-1.82 0.619-2.515-0.002l-1.081-0.955c-0.003-0.004-0.004-0.008-0.007-0.011-0.012-0.014-0.029-0.019-0.042-0.031l-11.467-10.126h27.712z"></path>
</symbol>
<symbol id="icon-github" viewBox="0 0 32 32">
<path d="M16 5.343c-6.196 0-11.219 5.023-11.219 11.219 0 4.957 3.214 9.162 7.673 10.645 0.561 0.103 0.766-0.244 0.766-0.54 0-0.267-0.010-1.152-0.016-2.088-3.12 0.678-3.779-1.323-3.779-1.323-0.511-1.296-1.246-1.641-1.246-1.641-1.020-0.696 0.077-0.682 0.077-0.682 1.126 0.078 1.72 1.156 1.72 1.156 1.001 1.715 2.627 1.219 3.265 0.931 0.102-0.723 0.392-1.219 0.712-1.498-2.49-0.283-5.11-1.246-5.11-5.545 0-1.226 0.438-2.225 1.154-3.011-0.114-0.285-0.501-1.426 0.111-2.97 0 0 0.941-0.301 3.085 1.15 0.894-0.25 1.854-0.373 2.807-0.377 0.953 0.004 1.913 0.129 2.809 0.379 2.14-1.453 3.083-1.15 3.083-1.15 0.613 1.545 0.227 2.685 0.112 2.969 0.719 0.785 1.153 1.785 1.153 3.011 0 4.31-2.624 5.259-5.123 5.537 0.404 0.348 0.761 1.030 0.761 2.076 0 1.5-0.015 2.709-0.015 3.079 0 0.299 0.204 0.648 0.772 0.538 4.455-1.486 7.666-5.69 7.666-10.645 0-6.195-5.023-11.219-11.219-11.219z"></path>
</symbol>
<symbol id="symbol-search" width="12" height="12" viewBox="0 0 12 12" fill="none" xmlns="http://www.w3.org/2000/svg">
<path d="M5.5 9.5C7.70914 9.5 9.5 7.70914 9.5 5.5C9.5 3.29086 7.70914 1.5 5.5 1.5C3.29086 1.5 1.5 3.29086 1.5 5.5C1.5 7.70914 3.29086 9.5 5.5 9.5Z" stroke="white" stroke-linecap="round" stroke-linejoin="round"/>
<path d="M10.5 10.5002L8.32495 8.3252" stroke="white" stroke-linecap="round" stroke-linejoin="round"/>
</symbol>
<symbol id="symbol-heart" viewBox="0 0 14 13" fill="none" xmlns="http://www.w3.org/2000/svg">
<path d="m7 13.188-.98-.97C2.38 9.03 0 6.88 0 4.248 0 2.097 1.68.435 3.85.435 5.04.436 6.23.99 7 1.89A4.224 4.224 0 0 1 10.15.436C12.32.436 14 2.099 14 4.247c0 2.634-2.38 4.783-6.02 7.97l-.98.971Z" fill="#FF6B08"/>
</symbol>
<symbol id="logo-film" width="24" height="24" viewBox="0 0 24 24" fill="none" xmlns="http://www.w3.org/2000/svg">
<path d="M19.82 2H4.18C2.97602 2 2 2.97602 2 4.18V19.82C2 21.024 2.97602 22 4.18 22H19.82C21.024 22 22 21.024 22 19.82V4.18C22 2.97602 21.024 2 19.82 2Z" stroke-width="2" stroke-linecap="round" stroke-linejoin="round"/>
<path d="M7 2V22" stroke-width="2" stroke-linecap="round" stroke-linejoin="round"/>
<path d="M17 2V22" stroke-width="2" stroke-linecap="round" stroke-linejoin="round"/>
<path d="M2 12H22" stroke-width="2" stroke-linecap="round" stroke-linejoin="round"/>
<path d="M2 7H7" stroke-width="2" stroke-linecap="round" stroke-linejoin="round"/>
<path d="M2 17H7" stroke-width="2" stroke-linecap="round" stroke-linejoin="round"/>
<path d="M17 17H22" stroke-width="2" stroke-linecap="round" stroke-linejoin="round"/>
<path d="M17 7H22" stroke-width="2" stroke-linecap="round" stroke-linejoin="round"/>
</symbol>
<symbol id="icon-empty-collection" viewBox="0 0 43 32">
<path d="M17.657 4.525c-0.111 0.070-0.354 0.281-0.545 0.457-0.334 0.316-0.384 0.328-1.142 0.258-0.738-0.070-0.809-0.047-1.051 0.211-0.505 0.551-0.95 1.887-0.95 2.894 0 0.492 0 0.492-0.637 0.844-0.747 0.41-1.122 0.809-1.021 1.101s0.475 0.422 1.435 0.504l0.839 0.070-0.061 1.664-1.061 0.070v0.469c0 0.48-0.091 0.574-0.303 0.281-0.071-0.094-0.172-0.175-0.222-0.175-0.101 0-4.093 1.723-4.295 1.863-0.091 0.047 0.141 0.598 0.768 1.816l0.889 1.746-0.343 0.363c-0.707 0.75-0.475 1.921 0.455 2.297 0.384 0.152 0.475 0.152 0.879-0.011l0.445-0.188 0.404 0.703c0.394 0.691 0.394 0.703 0.253 1.172-0.101 0.328-0.111 0.504-0.040 0.551 0.121 0.094 1.496 0.305 2.981 0.469 0.556 0.058 1.859 0.117 2.91 0.117h1.89v0.469c0 0.281-0.051 0.492-0.121 0.516-0.657 0.199-0.738 0.258-0.738 0.539s0.030 0.293 0.768 0.328c1 0.047 1.101-0.058 1.101-1.101v-0.75h0.384c0.213 0 0.485-0.082 0.606-0.188 0.213-0.175 0.253-0.175 0.415 0 0.101 0.105 0.354 0.188 0.596 0.188h0.424v0.796c0 0.469 0.051 0.856 0.121 0.937 0.172 0.199 1.536 0.188 1.688-0.023 0.162-0.235 0.030-0.527-0.283-0.61-0.495-0.129-0.515-0.152-0.515-0.632v-0.469h1.9c2.273-0.011 5.517-0.328 5.871-0.574 0.081-0.058 0.081-0.211-0.020-0.551-0.141-0.446-0.132-0.48 0.202-1.101 0.475-0.867 0.455-0.843 0.869-0.645 0.465 0.222 0.717 0.222 1.142-0.011s0.647-0.691 0.647-1.347c0-0.422-0.061-0.563-0.384-0.914l-0.384-0.422 0.404-0.762c0.909-1.711 1.364-2.625 1.334-2.66-0.071-0.082-4.426-1.91-4.547-1.91-0.081 0-0.192 0.082-0.262 0.175-0.213 0.293-0.303 0.199-0.303-0.293 0-0.293-0.051-0.48-0.121-0.48-0.071-0.011-0.293-0.023-0.485-0.035l-0.354-0.011-0.030-1.347c-0.020-1.031-0.061-1.383-0.192-1.547-0.151-0.199-0.465-0.211-4.668-0.211h-4.507l0.637-0.399c0.849-0.539 0.95-0.645 0.909-0.996-0.040-0.375-0.485-0.586-1.303-0.586l-0.566-0.011-0.313-0.738c-0.343-0.797-1.273-2.004-1.688-2.192-0.333-0.153-0.454-0.141-0.707 0.023zM18.496 4.9c0.485 0.352 1.182 1.324 1.394 1.934 0.091 0.269 0.151 0.504 0.132 0.527-0.020 0.011-0.637 0.117-1.364 0.222-1.071 0.164-3.001 0.645-4.255 1.090-0.222 0.070-0.232 0.035-0.232-0.492 0-0.598 0.172-1.277 0.505-2.027 0.303-0.703 0.415-0.762 1.303-0.679l0.798 0.058 0.526-0.457c0.293-0.246 0.586-0.457 0.667-0.457s0.312 0.129 0.525 0.281zM21.335 7.666c0.819 0.129 0.93 0.258 0.617 0.645-0.213 0.258-1.101 0.82-1.162 0.738-0.010-0.023-0.071-0.141-0.132-0.281-0.162-0.363-1.030-0.563-2.052-0.469-1.95 0.164-2.769 0.199-2.617 0.094 0.283-0.211 2.567-0.645 3.941-0.762 0.253-0.023 0.526-0.047 0.606-0.058 0.082-0.012 0.446 0.035 0.799 0.094zM15.676 8.755c-0.061 0.164-0.213 0.328-0.334 0.363-0.415 0.141-0.788 0.61-0.819 1.020l-0.020 0.399-0.617 0.035c-0.707 0.035-1.435-0.152-1.435-0.375 0-0.188 0.434-0.632 0.788-0.797 0.626-0.281 2.496-1.008 2.526-0.984 0.011 0.023-0.019 0.175-0.090 0.34zM20.537 8.837c0.061 0.094 0.091 0.305 0.081 0.469l-0.030 0.293 4.568 0.035c4.446 0.023 4.578 0.035 4.679 0.258 0.111 0.235 0.061 0.235-7.528 0.235-4.193 0-7.629-0.023-7.629-0.047 0-0.305 0.162-0.422 0.617-0.422h0.495v-0.457c0-0.258 0.051-0.48 0.132-0.516 0.061-0.023 1.111-0.047 2.324-0.035 1.838 0.011 2.211 0.035 2.292 0.188zM15.686 9.306c0 0.058-0.091 0.117-0.213 0.117-0.111 0-0.172-0.058-0.141-0.117 0.030-0.070 0.132-0.117 0.213-0.117s0.141 0.047 0.141 0.117zM29.854 10.654c0.030 0.164 0.020 0.316-0.020 0.352-0.040 0.023-3.456 0.035-7.589 0.023l-7.518-0.023-0.030-0.328-0.030-0.316h15.147l0.041 0.293zM29.854 16.443c0 4.196-0.030 5.227-0.141 5.297-0.071 0.058-3.385 0.094-7.367 0.105-6.336 0-7.256-0.023-7.448-0.188l-0.222-0.175v-10.301l15.178 0.058v5.203zM14.535 13.9l0.020 1.125-0.667 0.691c-0.747 0.773-0.828 0.832-0.828 0.574 0-0.105-0.040-0.188-0.101-0.188-0.141 0-0.132 0.117 0.132 1.020 0.243 0.832 0.697 1.735 0.809 1.605 0.030-0.047-0.010-0.199-0.101-0.352-0.141-0.258-0.132-0.316 0.162-0.856 0.626-1.125 0.626-1.137 0.617 1.558-0.010 2.145 0.010 2.461 0.162 2.66s0.364 0.222 2.748 0.246l2.587 0.035 0.020 0.856c0.020 0.598-0.010 0.879-0.101 0.914-0.243 0.105-2.243 0.117-3.749 0.023-1.445-0.082-3.658-0.375-3.749-0.48-0.020-0.023 0.020-0.235 0.101-0.457 0.151-0.399 0.141-0.422-0.293-1.184-0.343-0.574-0.445-0.867-0.434-1.184 0.010-0.258 0.061-0.422 0.141-0.422 0.071 0 0.213-0.129 0.313-0.281 0.213-0.305 0.536-0.246 0.717 0.117 0.061 0.117 0.121 0.152 0.162 0.070 0.030-0.070-0.051-0.222-0.192-0.34-0.151-0.117-0.404-0.34-0.576-0.504l-0.313-0.281 0.343-0.328c0.384-0.375 0.213-0.446-0.222-0.094-0.232 0.199-0.667 0.258-0.859 0.129-0.010-0.011 0.020-0.222 0.071-0.492 0.061-0.293 0.061-0.539-0.010-0.668-0.081-0.164-0.091-0.129-0.101 0.175 0 0.691-0.162 0.973-0.536 0.973-0.303 0-0.384-0.070-0.667-0.598-0.172-0.328-0.313-0.621-0.313-0.656 0-0.082-0.738-1.488-0.828-1.558-0.040-0.035-0.091-0.199-0.101-0.352-0.030-0.246 0.051-0.316 0.728-0.61 1.394-0.621 3.223-1.383 3.284-1.383 0.040 0 0.182 0.105 0.323 0.235 0.374 0.34 0.424 0.293 0.394-0.293-0.010-0.293 0-0.563 0.030-0.586 0.030-0.035 0.232-0.058 0.464-0.035l0.404 0.035 0.010 1.14zM30.824 13.314c0.020 0.399 0.071 0.563 0.182 0.563 0.071 0 0.141-0.035 0.141-0.094 0.010-0.188 0.515-0.516 0.637-0.41 0.071 0.058 0.323 0.199 0.576 0.305 2.607 1.067 3.395 1.418 3.466 1.488 0.101 0.105-0.192 0.762-0.879 1.992-0.273 0.48-0.536 0.996-0.596 1.137-0.081 0.211-0.182 0.269-0.485 0.269-0.343 0-0.394-0.035-0.455-0.328-0.172-0.902-0.243-1.020-0.202-0.34l0.051 0.679-0.424 0.211c-0.313 0.152-0.505 0.188-0.728 0.117-0.394-0.129-0.687-0.129-0.617 0 0.030 0.047 0.243 0.129 0.465 0.175 0.354 0.070 0.404 0.105 0.404 0.399-0.010 0.246-0.101 0.387-0.455 0.632-0.262 0.175-0.455 0.41-0.455 0.527 0 0.164 0.030 0.164 0.202-0.058 0.293-0.363 0.788-0.632 1-0.551 0.121 0.035 0.213 0.211 0.243 0.446 0.030 0.305-0.040 0.516-0.404 1.125-0.455 0.738-0.495 0.996-0.293 1.547 0.091 0.235-0.030 0.258-1.89 0.516-1 0.141-4.497 0.258-5.538 0.188-0.141-0.011-0.162-0.164-0.151-0.926l0.010-0.902 2.587-0.035c1.981-0.023 2.617-0.058 2.708-0.175 0.061-0.105 0.111-1.020 0.111-2.519 0.020-2.683 0.040-2.766 0.647-1.746 0.415 0.703 0.424 0.75 0.192 1.043-0.091 0.117-0.132 0.246-0.101 0.293 0.101 0.105 0.323-0.258 0.617-0.961 0.262-0.656 0.505-1.688 0.415-1.793-0.030-0.035-0.081 0.047-0.121 0.188-0.030 0.141-0.081 0.258-0.121 0.258s-0.394-0.352-0.798-0.785l-0.728-0.773v-1.080c0-0.586 0.030-1.114 0.071-1.16s0.213-0.070 0.384-0.047c0.281 0.036 0.301 0.070 0.331 0.586zM14.575 15.903c0 0.399-0.061 0.574-0.262 0.797-0.141 0.152-0.343 0.446-0.455 0.656-0.121 0.211-0.243 0.387-0.283 0.387-0.111 0-0.313-0.551-0.313-0.843 0-0.246 1.021-1.5 1.223-1.5 0.051 0.001 0.091 0.224 0.091 0.505zM30.834 16.126c0.334 0.41 0.617 0.809 0.617 0.89s-0.071 0.34-0.151 0.574l-0.162 0.433-0.343-0.61c-0.192-0.328-0.445-0.656-0.556-0.726-0.162-0.094-0.202-0.246-0.202-0.703 0-0.328 0.040-0.586 0.091-0.586s0.363 0.328 0.707 0.727zM11.947 18.962c0.192 0.094 0.253 0.222 0.253 0.48 0 0.293-0.040 0.352-0.283 0.387-0.253 0.035-0.273 0.070-0.222 0.41 0.091 0.574-0.222 0.902-0.869 0.902-0.434 0-0.556-0.058-0.809-0.34-0.222-0.269-0.293-0.457-0.293-0.809 0-0.539 0.364-1.148 0.738-1.23 0.324-0.070 1.193 0.047 1.486 0.199zM34.422 18.845c0.617 0.305 0.839 0.996 0.526 1.699-0.263 0.574-1.172 0.809-1.667 0.41-0.202-0.164-0.222-0.258-0.172-0.645 0.061-0.433 0.051-0.446-0.263-0.48-0.243-0.023-0.343-0.094-0.364-0.281-0.040-0.34 0.293-0.632 0.859-0.75 0.707-0.129 0.717-0.129 1.081 0.047zM20.921 23.802l-0.030 1.851h-0.728c-0.809 0-0.99-0.175-0.343-0.328l0.415-0.094v-1.558c0-0.856 0.030-1.594 0.071-1.629 0.030-0.047 0.192-0.082 0.354-0.082h0.293l-0.031 1.84zM23.568 22.888c0 0.738-0.030 0.937-0.162 0.996-0.213 0.094-0.657-0.035-0.869-0.246-0.151-0.152-0.202-0.152-0.455 0.047-0.151 0.129-0.415 0.222-0.586 0.222l-0.303-0.011-0.030-0.973-0.030-0.961h2.435v0.925zM24.458 23.626l0.030 1.617 0.273 0.070c0.455 0.117 0.526 0.152 0.526 0.281 0 0.070-0.303 0.117-0.758 0.117h-0.758v-3.761l0.334 0.035 0.323 0.035 0.030 1.605z"></path>
<path d="M24.599 15.657c0.020 0.152 0.101 0.269 0.182 0.269s0.162-0.117 0.182-0.269c0.030-0.199-0.020-0.258-0.182-0.258s-0.212 0.059-0.182 0.258zM19.526 15.798c0.051 0.058 0.202 0.094 0.354 0.094s0.303-0.035 0.354-0.094c0.051-0.058-0.101-0.105-0.354-0.105s-0.404 0.047-0.354 0.105zM20.557 17.533c-0.445 0.516 0.566 1.488 1.435 1.359 0.647-0.082 0.596-0.797-0.061-0.926-0.202-0.035-0.485-0.175-0.637-0.316-0.313-0.294-0.556-0.328-0.738-0.117zM21.093 17.696c0.202 0.175 0.202 0.175 0.010 0.352-0.253 0.211-0.354 0.211-0.424-0.011-0.071-0.199 0.020-0.527 0.132-0.527 0.040 0 0.172 0.094 0.283 0.187zM21.648 18.411c0 0.258-0.030 0.281-0.273 0.211-0.384-0.105-0.394-0.141-0.192-0.399 0.233-0.293 0.465-0.187 0.465 0.188zM22.204 18.259c0.162 0.141 0.172 0.188 0.061 0.352-0.071 0.105-0.213 0.188-0.303 0.188-0.141 0-0.172-0.082-0.132-0.352 0.051-0.399 0.101-0.422 0.374-0.188zM32.572 7.642c-0.071 0.281-0.101 0.574-0.081 0.645 0.020 0.082 0.101-0.082 0.162-0.363 0.071-0.281 0.101-0.574 0.081-0.645-0.020-0.082-0.101 0.082-0.162 0.363zM33.39 8.368c-0.182 0.258-0.303 0.469-0.253 0.457 0.111-0.011 0.778-0.926 0.677-0.926-0.051 0-0.242 0.211-0.424 0.469zM33.946 9.271c-0.273 0.094-0.475 0.199-0.445 0.222 0.071 0.082 0.98-0.222 0.98-0.328 0-0.047-0.010-0.094-0.020-0.082-0.020 0.012-0.253 0.094-0.515 0.188z"></path>
</symbol>
</defs>
</svg>